<svg xmlns="http://www.w3.org/2000/svg" version="1.1" xmlns:xlink="http://www.w3.org/1999/xlink" xmlns:svgjs="http://svgjs.dev/svgjs" width="1500" height="1500" viewBox="0 0 1500 1500"><rect width="1500" height="1500" fill="#ff5e00"></rect><g transform="matrix(0.6666666666666666,0,0,0.6666666666666666,249.39393939393938,682.9945714290484)"><svg viewBox="0 0 396 53" data-background-color="#ff5e00" preserveAspectRatio="xMidYMid meet" height="200" width="1500" xmlns="http://www.w3.org/2000/svg" xmlns:xlink="http://www.w3.org/1999/xlink"><g id="tight-bounds" transform="matrix(1,0,0,1,0.2400000000000091,0.13465785695328236)"><svg viewBox="0 0 395.52 52.730684286093414" height="52.730684286093414" width="395.52"><g><svg viewBox="0 0 489.0897995572109 65.2054" height="52.730684286093414" width="395.52"><g><svg viewBox="0 0 489.0897995572109 65.2054" height="65.2054" width="489.0897995572109"><g id="textblocktransform"><svg viewBox="0 0 489.0897995572109 65.2054" height="65.2054" width="489.0897995572109" id="textblock"><g><svg viewBox="0 0 489.0897995572109 65.2054" height="65.2054" width="489.0897995572109"><g><svg><g></g><g></g></svg></g><g><svg><g></g><g><svg></svg></g></svg></g><g id="text-0"><svg viewBox="0 0 489.0897995572109 65.2054" height="65.2054" width="489.0897995572109"><g><svg xmlns="http://www.w3.org/2000/svg" xmlns:xlink="http://www.w3.org/1999/xlink" version="1.1" x="0" y="0" viewBox="1.0469999999999997 9.17 97.90512973221482 81.662" enable-background="new 0 0 100 100" xml:space="preserve" height="65.2054" width="78.17519955721093" class="icon-cg-0" data-fill-palette-color="accent" id="cg-0"><g fill="#ffffff" data-fill-palette-color="accent"><path d="M1.047 66.597v5.466c0 1.574 1.276 2.85 2.849 2.85h88.896c1.573 0 2.848-1.275 2.848-2.85v-5.466H1.047z" fill="#ffffff" data-fill-palette-color="accent"></path><path d="M92.793 9.17H3.896c-1.573 0-2.849 1.276-2.849 2.849v53.757h94.593V12.019C95.641 10.446 94.366 9.17 92.793 9.17zM91.707 62.311H4.825V12.808h86.882V62.311z" fill="#ffffff" data-fill-palette-color="accent"></path><path d="M61.269 83.279c-1.734-1.275-1.917-3.19-1.917-3.19l-0.65-4.154H37.988l-0.652 4.154c0 0-0.181 1.915-1.914 3.19-1.732 1.276-3.099 2.37-1.732 2.553 1.317 0.177 13.74 0.015 14.656 0.001 0.917 0.014 13.338 0.176 14.655-0.001C64.367 85.649 63 84.556 61.269 83.279z" fill="#ffffff" data-fill-palette-color="accent"></path><polygon points="74.279,90.061 21.101,90.061 23.95,86.505 71.43,86.505  " fill="#ffffff" data-fill-palette-color="accent"></polygon><rect x="21.101" y="90.061" width="53.179" height="0.77" fill="#ffffff" data-fill-palette-color="accent"></rect><path d="M90.211 85.702c0 0-3.898-0.043-6.76 0.795 0.678-0.063 1.426-0.007 2.211 0.265 0.777 0.271 1.533 0.71 2.331 1.173 1.443 0.842 3.125 1.816 5.617 2.197 3.719-0.049 5.309-0.408 5.341-1.077C98.997 88.142 97.664 85.841 90.211 85.702zM85.545 87.099c-1.787-0.62-3.411-0.021-4.321 0.469-0.177 0.149-0.329 0.309-0.446 0.482 0 0 0.552 1.769 7.868 2.011 1.217 0.04 2.31 0.065 3.292 0.073-1.698-0.484-2.984-1.228-4.125-1.89C87.031 87.789 86.292 87.357 85.545 87.099z" fill="#ffffff" data-fill-palette-color="accent"></path><path d="M94.127 90.434c-0.001 0-0.001 0.001-0.002 0.001-0.086 0.002-0.201 0.004-0.332 0.006-0.061 0-0.12 0.002-0.183 0.003-0.002-0.001-0.005-0.001-0.008-0.001-0.515 0.003-1.201 0.001-1.679 0 0.006 0.001 0.01 0.001 0.014 0.003-0.157-0.002-0.321-0.003-0.483-0.005-0.055-0.001-0.086-0.002-0.086-0.002h-0.002c-0.831-0.012-1.732-0.032-2.721-0.065-2.743-0.092-4.537-0.398-5.705-0.744v0.432l8.834 0.77c0 0 3.772-0.105 4.923-0.385v-0.163C96.012 90.36 95.161 90.41 94.127 90.434z" fill="#ffffff" data-fill-palette-color="accent"></path></g></svg></g><g transform="matrix(1,0,0,1,93.56979955721093,3.6744676950998176)"><svg width="395.52" viewBox="3.75 -39.85 275.48 40.300000000000004" height="57.85646460980036" data-palette-color="#ffffff"><path d="M15.1-34.75Q20.65-34.75 24.83-32.63 29-30.5 31.28-26.53 33.55-22.55 33.55-17.25L33.55-17.25Q33.55-11.95 31.28-8.05 29-4.15 24.83-2.08 20.65 0 15.1 0L15.1 0 3.75 0 3.75-34.75 15.1-34.75ZM15.1-4.65Q21.2-4.65 24.45-7.95 27.7-11.25 27.7-17.25L27.7-17.25Q27.7-23.3 24.45-26.7 21.2-30.1 15.1-30.1L15.1-30.1 9.45-30.1 9.45-4.65 15.1-4.65ZM37.3-13.9Q37.3-18.05 39.02-21.25 40.75-24.45 43.72-26.23 46.7-28 50.3-28L50.3-28Q53.55-28 55.97-26.73 58.4-25.45 59.85-23.55L59.85-23.55 59.85-27.55 65.6-27.55 65.6 0 59.85 0 59.85-4.1Q58.4-2.15 55.9-0.85 53.4 0.45 50.2 0.45L50.2 0.45Q46.65 0.45 43.7-1.38 40.75-3.2 39.02-6.48 37.3-9.75 37.3-13.9L37.3-13.9ZM59.85-13.8Q59.85-16.65 58.67-18.75 57.5-20.85 55.6-21.95 53.7-23.05 51.5-23.05L51.5-23.05Q49.3-23.05 47.4-21.98 45.5-20.9 44.32-18.82 43.15-16.75 43.15-13.9L43.15-13.9Q43.15-11.05 44.32-8.9 45.5-6.75 47.42-5.63 49.35-4.5 51.5-4.5L51.5-4.5Q53.7-4.5 55.6-5.6 57.5-6.7 58.67-8.83 59.85-10.95 59.85-13.8L59.85-13.8ZM75.94-27.55L83.75-5.1 91.55-27.55 97.59-27.55 87.09 0 80.3 0 69.84-27.55 75.94-27.55ZM104.79-31.2Q103.24-31.2 102.19-32.25 101.14-33.3 101.14-34.85L101.14-34.85Q101.14-36.4 102.19-37.45 103.24-38.5 104.79-38.5L104.79-38.5Q106.29-38.5 107.34-37.45 108.39-36.4 108.39-34.85L108.39-34.85Q108.39-33.3 107.34-32.25 106.29-31.2 104.79-31.2L104.79-31.2ZM101.89-27.55L107.59-27.55 107.59 0 101.89 0 101.89-27.55ZM113.19-13.9Q113.19-18.05 114.92-21.25 116.64-24.45 119.62-26.23 122.59-28 126.24-28L126.24-28Q128.94-28 131.56-26.83 134.19-25.65 135.74-23.7L135.74-23.7 135.74-37 141.49-37 141.49 0 135.74 0 135.74-4.15Q134.34-2.15 131.87-0.85 129.39 0.45 126.19 0.45L126.19 0.45Q122.59 0.45 119.62-1.38 116.64-3.2 114.92-6.48 113.19-9.75 113.19-13.9L113.19-13.9ZM135.74-13.8Q135.74-16.65 134.56-18.75 133.39-20.85 131.49-21.95 129.59-23.05 127.39-23.05L127.39-23.05Q125.19-23.05 123.29-21.98 121.39-20.9 120.22-18.82 119.04-16.75 119.04-13.9L119.04-13.9Q119.04-11.05 120.22-8.9 121.39-6.75 123.31-5.63 125.24-4.5 127.39-4.5L127.39-4.5Q129.59-4.5 131.49-5.6 133.39-6.7 134.56-8.83 135.74-10.95 135.74-13.8L135.74-13.8ZM146.94-39.85L152.09-39.85 151.49-29.6 147.59-29.6 146.94-39.85ZM167.59 0.45Q164.34 0.45 161.76-0.73 159.19-1.9 157.69-3.93 156.19-5.95 156.09-8.45L156.09-8.45 161.99-8.45Q162.14-6.7 163.66-5.53 165.19-4.35 167.49-4.35L167.49-4.35Q169.89-4.35 171.21-5.28 172.53-6.2 172.53-7.65L172.53-7.65Q172.53-9.2 171.06-9.95 169.59-10.7 166.39-11.6L166.39-11.6Q163.28-12.45 161.34-13.25 159.39-14.05 157.96-15.7 156.53-17.35 156.53-20.05L156.53-20.05Q156.53-22.25 157.84-24.08 159.14-25.9 161.56-26.95 163.99-28 167.14-28L167.14-28Q171.84-28 174.71-25.63 177.59-23.25 177.79-19.15L177.79-19.15 172.09-19.15Q171.94-21 170.59-22.1 169.24-23.2 166.94-23.2L166.94-23.2Q164.69-23.2 163.49-22.35 162.28-21.5 162.28-20.1L162.28-20.1Q162.28-19 163.09-18.25 163.89-17.5 165.03-17.07 166.19-16.65 168.44-16L168.44-16Q171.44-15.2 173.36-14.38 175.29-13.55 176.69-11.95 178.09-10.35 178.14-7.7L178.14-7.7Q178.14-5.35 176.84-3.5 175.54-1.65 173.16-0.6 170.78 0.45 167.59 0.45L167.59 0.45ZM197.63-22.9L190.93-22.9 190.93-7.65Q190.93-6.1 191.66-5.43 192.38-4.75 194.13-4.75L194.13-4.75 197.63-4.75 197.63 0 193.13 0Q189.28 0 187.23-1.8 185.18-3.6 185.18-7.65L185.18-7.65 185.18-22.9 181.93-22.9 181.93-27.55 185.18-27.55 185.18-34.4 190.93-34.4 190.93-27.55 197.63-27.55 197.63-22.9ZM214.83 0.45Q210.93 0.45 207.78-1.33 204.63-3.1 202.83-6.33 201.03-9.55 201.03-13.8L201.03-13.8Q201.03-18 202.88-21.25 204.73-24.5 207.93-26.25 211.13-28 215.08-28L215.08-28Q219.03-28 222.23-26.25 225.43-24.5 227.28-21.25 229.13-18 229.13-13.8L229.13-13.8Q229.13-9.6 227.23-6.35 225.33-3.1 222.06-1.33 218.78 0.45 214.83 0.45L214.83 0.45ZM214.83-4.5Q217.03-4.5 218.96-5.55 220.88-6.6 222.08-8.7 223.28-10.8 223.28-13.8L223.28-13.8Q223.28-16.8 222.13-18.88 220.98-20.95 219.08-22 217.18-23.05 214.98-23.05L214.98-23.05Q212.78-23.05 210.91-22 209.03-20.95 207.93-18.88 206.83-16.8 206.83-13.8L206.83-13.8Q206.83-9.35 209.11-6.93 211.38-4.5 214.83-4.5L214.83-4.5ZM240.48-23.55Q241.73-25.65 243.8-26.83 245.88-28 248.73-28L248.73-28 248.73-22.1 247.28-22.1Q243.93-22.1 242.2-20.4 240.48-18.7 240.48-14.5L240.48-14.5 240.48 0 234.78 0 234.78-27.55 240.48-27.55 240.48-23.55ZM279.23-14.45Q279.23-12.9 279.03-11.65L279.03-11.65 257.98-11.65Q258.23-8.35 260.43-6.35 262.63-4.35 265.83-4.35L265.83-4.35Q270.43-4.35 272.33-8.2L272.33-8.2 278.48-8.2Q277.23-4.4 273.95-1.98 270.68 0.45 265.83 0.45L265.83 0.45Q261.88 0.45 258.75-1.33 255.63-3.1 253.85-6.33 252.08-9.55 252.08-13.8L252.08-13.8Q252.08-18.05 253.8-21.28 255.53-24.5 258.65-26.25 261.78-28 265.83-28L265.83-28Q269.73-28 272.78-26.3 275.83-24.6 277.53-21.53 279.23-18.45 279.23-14.45L279.23-14.45ZM258.03-16.25L273.28-16.25Q273.23-19.4 271.03-21.3 268.83-23.2 265.58-23.2L265.58-23.2Q262.63-23.2 260.53-21.33 258.43-19.45 258.03-16.25L258.03-16.25Z" opacity="1" transform="matrix(1,0,0,1,0,0)" fill="#ffffff" class="wordmark-text-0" data-fill-palette-color="primary"></path></svg></g></svg></g></svg></g></svg></g></svg></g></svg></g><defs></defs></svg><rect width="395.52" height="52.730684286093414" fill="none" stroke="none" visibility="hidden"></rect></g></svg></g></svg>