<?xml version="1.0" standalone="no"?>
<!DOCTYPE svg PUBLIC "-//W3C//DTD SVG 20010904//EN"
 "http://www.w3.org/TR/2001/REC-SVG-20010904/DTD/svg10.dtd">
<svg version="1.0" xmlns="http://www.w3.org/2000/svg"
 width="500.000000pt" height="500.000000pt" viewBox="0 0 500.000000 500.000000"
 preserveAspectRatio="xMidYMid meet">

<g transform="translate(0.000000,500.000000) scale(0.100000,-0.100000)"
fill="#000000" stroke="none">
<path d="M968 3358 c-52 -88 -173 -176 -413 -299 -82 -43 -193 -96 -245 -119
-52 -24 -97 -44 -99 -46 -7 -6 21 -103 33 -114 10 -7 50 7 152 53 332 152 521
284 584 406 16 32 20 56 18 104 l-3 62 -27 -47z"/>
<path d="M1021 3236 c-31 -70 -80 -126 -171 -195 -101 -76 -249 -159 -423
-237 -76 -34 -139 -65 -140 -70 -1 -5 24 -26 56 -47 l58 -39 162 80 c264 130
427 254 477 364 20 44 26 135 11 173 -7 17 -11 13 -30 -29z"/>
<path d="M2283 3137 c-82 -41 -83 -42 -83 -79 0 -21 3 -38 7 -38 4 0 42 14 85
32 l78 32 0 48 c0 26 -1 48 -2 47 -2 0 -40 -19 -85 -42z"/>
<path d="M1290 3040 l0 -50 65 0 65 0 0 -200 0 -200 60 0 60 0 0 200 0 199 68
3 67 3 3 48 3 47 -195 0 -196 0 0 -50z"/>
<path d="M1820 2979 c-108 -43 -143 -222 -64 -327 54 -70 162 -88 223 -36 l31
26 0 -26 c0 -25 2 -26 60 -26 l60 0 0 200 0 200 -60 0 c-57 0 -60 -1 -60 -25
l0 -24 -36 24 c-39 27 -106 33 -154 14z m164 -119 c10 -10 20 -38 23 -63 5
-41 2 -49 -25 -77 -32 -32 -60 -37 -95 -18 -35 18 -46 40 -47 89 0 46 20 77
60 92 23 9 63 -2 84 -23z"/>
<path d="M2230 2790 l0 -200 60 0 60 0 0 200 0 200 -60 0 -60 0 0 -200z"/>
<path d="M160 2816 c-15 -55 -8 -121 19 -174 27 -53 133 -148 227 -204 121
-72 114 -73 114 19 l0 78 -62 34 c-159 87 -248 168 -271 249 l-14 45 -13 -47z"/>
<path d="M102 2670 c-16 -45 -15 -134 2 -175 30 -71 166 -185 304 -254 l42
-21 0 75 0 75 -42 21 c-66 33 -175 117 -213 163 -19 24 -45 67 -58 96 l-24 54
-11 -34z"/>
<path d="M2540 2000 l0 -260 55 0 c55 0 55 0 55 31 l0 31 31 -26 c78 -66 192
-39 240 57 30 58 30 148 0 210 -47 96 -163 126 -241 61 l-30 -26 0 91 0 91
-55 0 -55 0 0 -260z m261 11 c33 -34 39 -83 14 -130 -16 -33 -33 -41 -81 -41
-52 0 -84 36 -84 95 0 59 40 105 90 105 22 0 41 -9 61 -29z"/>
<path d="M3500 2000 l0 -260 55 0 55 0 0 260 0 260 -55 0 -55 0 0 -260z"/>
<path d="M3710 2000 l0 -260 54 0 54 0 3 129 c5 148 15 171 76 171 76 0 93
-36 93 -197 l0 -103 55 0 55 0 0 123 c-1 146 -9 190 -46 228 -52 55 -148 59
-202 9 -11 -11 -24 -20 -27 -20 -3 0 -5 41 -5 90 l0 90 -55 0 -55 0 0 -260z"/>
<path d="M1300 2190 l0 -40 65 0 65 0 0 -205 0 -205 60 0 60 0 0 205 0 205 65
0 65 0 0 40 0 40 -190 0 -190 0 0 -40z"/>
<path d="M1932 2120 c-23 -10 -45 -26 -48 -35 -10 -25 -24 -17 -24 15 0 30 -1
30 -55 30 l-55 0 0 -195 0 -195 55 0 55 0 0 105 c0 57 5 115 11 129 12 26 54
46 95 46 23 0 24 4 24 60 0 33 -3 60 -7 60 -5 0 -27 -9 -51 -20z"/>
<path d="M2146 2130 c-119 -36 -157 -238 -63 -338 61 -66 160 -70 216 -11 l21
23 0 -32 0 -32 60 0 60 0 0 195 0 195 -60 0 c-58 0 -60 -1 -60 -27 l0 -26 -22
21 c-42 39 -92 49 -152 32z m149 -115 c20 -19 25 -34 25 -75 0 -66 -30 -100
-88 -100 -56 0 -87 36 -87 102 0 42 4 53 28 74 38 32 90 32 122 -1z"/>
<path d="M3105 2126 c-38 -17 -80 -62 -95 -101 -7 -16 -12 -56 -12 -87 0 -105
57 -184 142 -195 51 -7 82 1 119 33 l31 26 0 -31 c0 -31 0 -31 55 -31 l55 0 0
195 0 195 -55 0 c-53 0 -55 -1 -55 -27 l0 -26 -22 21 c-45 42 -108 52 -163 28z
m156 -115 c61 -61 25 -171 -55 -171 -48 0 -65 8 -81 41 -37 71 4 159 75 159
22 0 41 -9 61 -29z"/>
<path d="M4296 2125 c-80 -28 -126 -96 -126 -187 0 -109 70 -187 174 -196 128
-10 226 75 226 198 0 142 -136 234 -274 185z m121 -100 c12 -9 26 -31 31 -49
20 -72 -15 -136 -75 -136 -48 0 -70 14 -83 56 -32 97 52 182 127 129z"/>
<path d="M4723 2129 c-80 -23 -113 -132 -54 -182 16 -13 51 -29 78 -36 75 -18
103 -32 103 -50 0 -46 -67 -56 -104 -16 -19 20 -33 25 -75 25 -28 0 -51 -4
-51 -9 0 -15 44 -74 71 -93 16 -12 50 -22 86 -25 119 -11 201 57 173 143 -15
43 -40 60 -133 88 -77 24 -96 47 -61 73 27 20 52 16 80 -12 19 -19 35 -25 69
-25 38 0 45 3 45 20 0 10 -14 35 -31 54 -44 51 -118 68 -196 45z"/>
</g>
</svg>
