<?xml version="1.0" standalone="no"?>
<!DOCTYPE svg PUBLIC "-//W3C//DTD SVG 20010904//EN"
 "http://www.w3.org/TR/2001/REC-SVG-20010904/DTD/svg10.dtd">
<svg version="1.0" xmlns="http://www.w3.org/2000/svg"
 width="500.000000pt" height="215.000000pt" viewBox="0 0 500.000000 215.000000"
 preserveAspectRatio="xMidYMid meet">

<g transform="translate(0.000000,215.000000) scale(0.100000,-0.100000)"
fill="#000000" stroke="none">
<path d="M987 1966 c-11 -40 -107 -132 -202 -194 -79 -52 -391 -213 -514 -265
-56 -24 -63 -30 -57 -50 3 -12 6 -29 6 -38 0 -9 8 -27 18 -39 l18 -22 135 61
c335 154 525 286 589 411 16 31 20 55 18 103 -2 51 -4 57 -11 33z"/>
<path d="M1026 1815 c-51 -124 -268 -278 -606 -430 l-142 -63 44 -32 c80 -59
69 -61 246 28 189 94 282 153 374 240 83 79 118 144 118 221 0 77 -11 89 -34
36z"/>
<path d="M2280 1722 c-72 -35 -75 -39 -78 -74 -4 -48 4 -48 102 -4 l76 35 0
40 c0 26 -4 41 -12 41 -7 -1 -47 -18 -88 -38z"/>
<path d="M1290 1630 l0 -50 65 0 65 0 0 -200 0 -200 65 0 65 0 0 200 0 200 65
0 65 0 0 50 0 50 -195 0 -195 0 0 -50z"/>
<path d="M1821 1562 c-19 -9 -48 -34 -65 -55 -27 -34 -31 -48 -34 -116 -4 -89
14 -139 68 -184 53 -45 141 -48 194 -6 l26 20 0 -20 c0 -19 6 -21 65 -21 l65
0 0 188 c0 103 -4 193 -9 200 -5 9 -25 12 -62 10 -47 -3 -54 -6 -57 -25 l-3
-22 -36 25 c-43 29 -103 32 -152 6z m164 -117 c19 -18 25 -35 25 -70 0 -73
-58 -114 -125 -89 -21 8 -45 56 -45 89 0 31 24 81 42 88 34 14 80 6 103 -18z"/>
<path d="M2237 1573 c-4 -3 -7 -93 -7 -200 l0 -193 63 0 62 0 -3 200 -3 200
-53 0 c-29 0 -56 -3 -59 -7z"/>
<path d="M161 1405 c-40 -144 47 -270 275 -396 60 -33 78 -39 87 -29 9 10 9
11 -1 5 -11 -6 -13 5 -11 52 1 33 -1 65 -6 73 -5 9 -4 11 3 6 7 -4 12 -5 12
-2 0 3 -26 19 -57 35 -83 42 -197 125 -228 165 -15 19 -35 56 -45 83 l-18 48
-11 -40z"/>
<path d="M102 1261 c-19 -53 -15 -146 7 -189 38 -74 151 -166 289 -236 l52
-26 0 70 0 70 -37 19 c-57 29 -130 84 -189 141 -47 45 -65 75 -100 160 l-11
24 -11 -33z"/>
<path d="M2550 585 l0 -255 50 0 c47 0 50 2 50 25 0 31 1 31 46 0 72 -49 175
-26 218 49 91 157 -25 357 -178 306 -18 -6 -42 -20 -51 -30 -10 -11 -22 -20
-27 -20 -4 0 -8 41 -8 90 l0 90 -50 0 -50 0 0 -255z m241 35 c51 -28 64 -120
23 -169 -21 -26 -33 -31 -67 -31 -63 1 -97 36 -97 100 0 81 75 135 141 100z"/>
<path d="M3510 585 l0 -255 53 0 52 0 0 255 0 255 -52 0 -53 0 0 -255z"/>
<path d="M3720 585 l0 -255 53 0 52 0 0 126 c1 125 1 127 28 150 31 27 83 32
111 11 24 -18 35 -77 36 -189 l0 -98 50 0 50 0 0 130 c0 172 -21 226 -97 251
-44 14 -91 5 -137 -26 -45 -31 -49 -24 -44 79 l3 76 -52 0 -53 0 0 -255z"/>
<path d="M1310 780 l0 -39 63 -3 62 -3 3 -202 2 -203 55 0 55 0 0 205 0 205
65 0 65 0 0 40 0 40 -185 0 -185 0 0 -40z"/>
<path d="M1945 706 c-16 -7 -39 -23 -49 -35 -26 -29 -36 -26 -36 9 0 29 -1 30
-50 30 l-50 0 0 -190 0 -190 49 0 49 0 4 115 c4 134 14 153 86 158 l42 2 0 58
c0 31 -3 57 -7 57 -5 -1 -21 -7 -38 -14z"/>
<path d="M2130 697 c-67 -35 -92 -90 -88 -189 2 -58 8 -83 24 -105 56 -76 148
-96 218 -48 45 31 46 31 46 0 0 -24 3 -25 55 -25 l55 0 0 190 0 190 -55 0
c-52 0 -55 -1 -55 -25 0 -27 -14 -34 -23 -12 -7 19 -69 47 -104 47 -17 0 -49
-10 -73 -23z m171 -96 c24 -25 29 -37 29 -81 0 -66 -30 -100 -89 -100 -79 0
-122 77 -87 152 30 64 99 77 147 29z"/>
<path d="M3100 698 c-127 -65 -126 -288 1 -353 44 -23 110 -19 153 10 45 31
46 31 46 0 0 -24 3 -25 55 -25 l55 0 0 190 0 190 -55 0 c-52 0 -55 -1 -55 -25
0 -29 -12 -32 -31 -9 -19 23 -64 44 -96 44 -16 0 -49 -10 -73 -22z m165 -90
c28 -25 42 -80 31 -122 -10 -41 -45 -66 -91 -66 -50 0 -83 30 -92 83 -15 96
83 164 152 105z"/>
<path d="M4318 711 c-46 -15 -83 -42 -108 -79 -21 -30 -25 -47 -25 -112 0 -69
3 -80 29 -114 36 -48 96 -75 163 -76 63 0 99 13 136 48 85 81 73 245 -23 308
-41 28 -126 40 -172 25z m109 -96 c27 -19 46 -83 37 -122 -11 -48 -42 -73 -89
-73 -60 0 -90 34 -89 102 0 44 5 55 32 80 36 31 76 36 109 13z"/>
<path d="M4733 710 c-75 -24 -110 -122 -59 -169 13 -13 57 -33 97 -45 82 -25
111 -52 84 -80 -25 -24 -72 -20 -101 9 -22 22 -33 26 -75 23 l-49 -3 18 -35
c49 -93 242 -110 298 -26 22 35 14 104 -17 128 -12 10 -53 28 -93 39 -80 24
-100 38 -90 63 15 39 90 40 111 1 7 -12 21 -15 56 -13 l47 3 -17 34 c-10 19
-30 43 -44 53 -30 22 -120 32 -166 18z"/>
</g>
</svg>
