<?xml version="1.0" standalone="no"?>
<!DOCTYPE svg PUBLIC "-//W3C//DTD SVG 20010904//EN"
 "http://www.w3.org/TR/2001/REC-SVG-20010904/DTD/svg10.dtd">
<svg version="1.0" xmlns="http://www.w3.org/2000/svg"
 width="500.000000pt" height="500.000000pt" viewBox="0 0 500.000000 500.000000"
 preserveAspectRatio="xMidYMid meet">

<g transform="translate(0.000000,500.000000) scale(0.100000,-0.100000)"
fill="#000000" stroke="none">
<path d="M3432 4884 c-29 -144 -171 -307 -428 -490 -315 -224 -826 -494 -1499
-791 l-110 -49 -3 -52 c-2 -29 4 -79 13 -110 18 -61 68 -167 84 -177 6 -3 81
25 168 64 813 358 1304 642 1577 914 106 105 176 206 220 316 28 70 30 85 30
196 0 92 -5 134 -20 180 l-20 60 -12 -61z"/>
<path d="M3562 4543 c-27 -130 -149 -315 -298 -452 -226 -208 -586 -437 -1019
-647 -185 -89 -551 -253 -648 -289 -38 -14 -45 -20 -36 -31 22 -26 154 -121
242 -174 l88 -53 162 73 c568 255 1020 524 1284 765 119 108 235 272 278 394
25 71 36 191 26 267 -12 78 -48 204 -59 204 -4 0 -13 -26 -20 -57z"/>
<path d="M1271 3408 c-110 -272 -36 -529 222 -775 151 -143 309 -250 580 -393
l137 -72 0 225 0 224 -72 33 c-255 117 -486 267 -624 404 -87 88 -106 114
-146 196 -26 52 -52 121 -58 153 -6 31 -13 57 -15 57 -1 0 -12 -24 -24 -52z"/>
<path d="M1122 3033 c-51 -121 -67 -194 -66 -308 1 -92 5 -121 26 -177 42
-112 87 -177 203 -294 88 -89 142 -132 270 -216 142 -94 416 -258 459 -274 15
-6 16 13 14 197 l-3 204 -45 24 c-119 63 -294 173 -380 237 -250 186 -380 357
-435 570 l-22 85 -21 -48z"/>
</g>
</svg>
